# xmcd
#
# Track frame offsets: 
#        150
#        13880
#        24545
#        39570
#        52227
#        67105
#        79390
#        90077
#        102902
#        114380
#        126075
#        136997
#        148595
#        161717
#        171930
#        185107
#        197712
#        210785
#        221307
#
# Disc length: 3095 seconds
#
# Revision: 1
# Processed by: cddbd v1.5.2PL0 Copyright (c) Steve Scherf et al.
# Submitted via: ExactAudioCopyFreeDBPlugin 1.0
#
DISCID=120c1513
DTITLE=Charles Brown - The Complete Aladdin Recordings of Charles Brow
DTITLE=n [Mosaic box set]
DYEAR=1994
DGENRE=Rhythm and Blues
TTITLE0=My Heart is Mended
TTITLE1=Hot Lips and Seven Kisses
TTITLE2=I See By the Papers
TTITLE3=Fool's Paradise
TTITLE4=Trees, Trees
TTITLE5=One Minute to One
TTITLE6=Please Don't Drive Me Away
TTITLE7=Tomorrow
TTITLE8=Knock Me a Kiss
TTITLE9=I'll Always Be in Love with You (1956 release)
TTITLE10=Soothe Me
TTITLE11=It's a Sin to Tell a Lie
TTITLE12=Please Believe Me
TTITLE13=There is No Greater Love
TTITLE14=Merry Christmas, Baby
TTITLE15=You Taught Me to Love
TTITLE16=Get Yourself Another Fool (previously unissued)
TTITLE17=All is Forgiven
TTITLE18=Confidential
EXTD=
EXTT0=
EXTT1=
EXTT2=
EXTT3=
EXTT4=
EXTT5=
EXTT6=
EXTT7=
EXTT8=
EXTT9=
EXTT10=
EXTT11=
EXTT12=
EXTT13=
EXTT14=
EXTT15=
EXTT16=
EXTT17=
EXTT18=
PLAYORDER=
